<?xml version="1.0" encoding="UTF-8"?>
<svg version="1.1" xmlns="http://www.w3.org/2000/svg" width="512" height="512">
<path d="M0 0 C8.83961747 7.47158143 15.56354376 17.04835826 16.78324699 28.8296814 C16.89503101 31.93543674 16.91687496 35.02896385 16.90405273 38.13671875 C16.91434761 39.89726341 16.91434761 39.89726341 16.92485046 41.69337463 C16.94308177 45.55612451 16.9392838 49.4184665 16.93359375 53.28125 C16.93607422 55.3009059 16.94042272 57.32055199 16.94494683 59.34020424 C16.95896002 65.6902261 16.95746151 72.04011338 16.94604492 78.39013672 C16.93460523 84.89587297 16.94857622 91.40119496 16.9754414 97.90687656 C16.99776579 103.52768852 17.00419743 109.14837209 16.99836498 114.76922512 C16.99502907 118.11041791 16.99894293 121.45113764 17.01461601 124.79232788 C17.14039658 156.01793704 10.68260843 181.16455114 -10.5 205.09375 C-11.11230469 205.78984375 -11.72460938 206.4859375 -12.35546875 207.203125 C-29.1421045 225.09932516 -54.34870292 235.92169031 -78.69292665 237.20978117 C-84.80540775 237.3949865 -90.91982601 237.36290009 -97.03442383 237.34912109 C-99.08244974 237.3518758 -101.13047457 237.35555859 -103.17849731 237.36009216 C-107.56431844 237.36816081 -111.95008872 237.37038369 -116.33591652 237.36814499 C-123.27441655 237.36529758 -130.21281597 237.3797149 -137.15129089 237.39712524 C-156.87289954 237.44402289 -176.59450011 237.46810399 -196.31616211 237.47460938 C-207.22686915 237.47836013 -218.13746108 237.4963837 -229.04811877 237.52970374 C-235.9428699 237.54990095 -242.83732388 237.55229712 -249.7320925 237.54142356 C-254.01981789 237.5388154 -258.30737029 237.55282438 -262.59505081 237.57150459 C-264.57997825 237.57682312 -266.56493761 237.57533562 -268.54985237 237.56646919 C-271.26397911 237.55532438 -273.97693845 237.56880624 -276.69099426 237.58822632 C-277.47203217 237.57910166 -278.25307007 237.569977 -279.0577758 237.56057584 C-285.36503493 237.64811487 -290.71139871 239.48524588 -295.375 243.84765625 C-298.85782805 249.44678607 -299.577229 254.58050428 -298.5 261.09375 C-295.89088315 266.40861765 -292.27852519 269.98846019 -286.75072861 272.18740273 C-283.29748951 273.15021267 -280.44348536 273.34425615 -276.86334229 273.3453064 C-276.2216311 273.34827654 -275.57991991 273.35124667 -274.91876292 273.35430682 C-272.78201241 273.36190638 -270.6455401 273.35546929 -268.50878906 273.34912109 C-266.97062495 273.35187318 -265.43246225 273.3555544 -263.89430237 273.36009216 C-260.58606292 273.3681919 -257.27789102 273.37037555 -253.96964264 273.36814499 C-248.72179193 273.36530179 -243.47407479 273.37970502 -238.22625732 273.39712524 C-223.30434197 273.44404479 -208.38243508 273.46806003 -193.46044922 273.47460938 C-185.21549791 273.47838081 -176.97069745 273.49658115 -168.72581077 273.52970374 C-164.37242588 273.54648343 -160.01931512 273.55582252 -155.66590118 273.54676437 C-120.83480478 273.48036545 -120.83480478 273.48036545 -106.5 278.09375 C-105.10834877 278.53096123 -105.10834877 278.53096123 -103.68858337 278.977005 C-101.65301067 279.65355666 -99.71350273 280.41997738 -97.75 281.28125 C-97.06736084 281.5709668 -96.38472168 281.86068359 -95.68139648 282.15917969 C-88.01973336 285.54305871 -78.22563425 290.00529862 -73.5 297.09375 C-73.5859375 299.07421875 -73.5859375 299.07421875 -73.875 301.28125 C-73.97318147 305.55915692 -72.87638452 307.5112537 -70 310.65625 C-67.06362132 313.31944108 -67.06362132 313.31944108 -63.36328125 314.4140625 C-62.68652344 314.37023437 -62.00976562 314.32640625 -61.3125 314.28125 C-57.5 314.09375 -57.5 314.09375 -54.875 315.96875 C-38.76759578 337.16270292 -32.84543425 364.32962121 -35.9609375 390.546875 C-38.87369334 410.70093145 -47.74551849 430.08274163 -61.5 445.09375 C-62.32113281 446.00769531 -63.14226562 446.92164063 -63.98828125 447.86328125 C-82.19929962 467.15347107 -107.77354926 478.10362583 -134.19823074 479.20634937 C-141.98657968 479.39724762 -149.77629103 479.36614495 -157.56640625 479.35253906 C-160.18464251 479.35525311 -162.802878 479.35881636 -165.42111206 479.36315918 C-171.76282337 479.37200015 -178.10448704 479.37015498 -184.44620013 479.3643339 C-189.60542357 479.3597964 -194.76463377 479.35921348 -199.92385864 479.36138153 C-200.66129226 479.361688 -201.39872588 479.36199446 -202.15850598 479.36231022 C-203.657113 479.36294974 -205.15572002 479.36359817 -206.65432703 479.3642554 C-220.66978961 479.36994318 -234.68522592 479.36342526 -248.70068419 479.35265467 C-260.69727916 479.34372057 -272.69383541 479.34527305 -284.69042969 479.35449219 C-298.65959147 479.36522235 -312.62873029 479.369394 -326.59789562 479.36326766 C-328.0906442 479.36263064 -329.58339278 479.36200189 -331.07614136 479.36138153 C-332.17751044 479.3609187 -332.17751044 479.3609187 -333.3011294 479.36044653 C-338.44743218 479.35872781 -343.59372025 479.36161683 -348.74002075 479.36634064 C-355.6807737 479.37257222 -362.62145278 479.36806463 -369.56219864 479.35655212 C-372.10052495 479.35392091 -374.63885744 479.35464412 -377.17718124 479.35907745 C-413.14110115 479.41607119 -442.83287943 472.69055476 -469.10400391 446.56005859 C-480.14590527 434.9620069 -487.99013205 420.39070045 -492.5 405.09375 C-492.75568284 404.25550344 -493.01136568 403.41725687 -493.27479649 402.55360889 C-496.55465977 389.86182888 -495.92844455 376.90116825 -495.90405273 363.88745117 C-495.90812262 361.13467014 -495.91662881 358.38190647 -495.92485046 355.62913513 C-495.94196247 348.95439527 -495.9428943 342.27974986 -495.93763756 335.60499378 C-495.93358008 330.1740187 -495.93505805 324.74307133 -495.94038582 319.31209755 C-495.94113424 318.53625083 -495.94188266 317.76040411 -495.94265376 316.96104688 C-495.9441854 315.38441178 -495.94572375 313.80777669 -495.94726873 312.2311416 C-495.96096649 297.47738453 -495.95557548 282.72368062 -495.94408352 267.96992479 C-495.93415585 254.5060054 -495.94708858 241.04222353 -495.97101771 227.57832535 C-495.99546732 213.71592367 -496.00500211 199.85358587 -495.99836498 185.99116307 C-495.99488551 178.22356721 -495.99702011 170.45607698 -496.01461601 162.68849754 C-496.02941166 156.07567311 -496.02987825 149.46302871 -496.0125451 142.85020753 C-496.0040922 139.48385023 -496.00395218 136.11807429 -496.01719666 132.75169373 C-496.08030049 115.37666229 -495.26545151 99.45494783 -488.25 83.28125 C-487.95335449 82.58241699 -487.65670898 81.88358398 -487.35107422 81.16357422 C-484.4690272 74.61701718 -480.81229977 68.80049436 -476.5 63.09375 C-475.80003906 62.16046875 -475.10007812 61.2271875 -474.37890625 60.265625 C-458.71754915 40.27715497 -435.05161764 25.25285909 -409.5 22.09375 C-408.79101562 21.98546875 -408.08203125 21.8771875 -407.3515625 21.765625 C-401.49269196 21.00577148 -395.58788676 20.92974031 -389.6875 20.84375 C-388.86258057 20.82231934 -388.03766113 20.80088867 -387.18774414 20.77880859 C-382.54857827 20.7532693 -379.11175252 20.82969075 -375.5 24.09375 C-375.005 26.56875 -375.005 26.56875 -374.5 29.09375 C-369.88 29.09375 -365.26 29.09375 -360.5 29.09375 C-360.17 27.44375 -359.84 25.79375 -359.5 24.09375 C-355.25939218 20.25931236 -350.5434448 20.6682101 -345.14257812 20.70556641 C-343.73903076 20.69768097 -343.73903076 20.69768097 -342.30712891 20.68963623 C-339.21499907 20.67643958 -336.12338508 20.68517902 -333.03125 20.6953125 C-330.87235414 20.69329031 -328.71345895 20.69037767 -326.55456543 20.68661499 C-322.02524322 20.68219094 -317.49609845 20.68862038 -312.96679688 20.70263672 C-307.19154809 20.71964657 -301.41672013 20.70994003 -295.64148712 20.69191933 C-291.178476 20.68101357 -286.71556248 20.68456022 -282.25254822 20.6923027 C-280.12531992 20.69429026 -277.99808247 20.69189678 -275.87086487 20.68486404 C-260.3564491 20.64486024 -246.58839382 20.68213112 -233.5 30.09375 C-232.85289062 30.54621094 -232.20578125 30.99867187 -231.5390625 31.46484375 C-224.61371831 36.80249987 -220.42028429 44.9818492 -217.5 53.09375 C-217.5 54.41375 -217.5 55.73375 -217.5 57.09375 C-207.44817996 58.07123232 -207.44817996 58.07123232 -198.25488281 54.59033203 C-194.05437349 50.94703313 -190.37271357 46.85011084 -186.83422852 42.56835938 C-184.86459082 40.39148624 -183.61425672 40.10898423 -180.6875 39.71875 C-177.5 40.09375 -177.5 40.09375 -174.5625 42.09375 C-172.25443071 45.45094169 -172.20663956 47.04749316 -172.82543945 51.0078125 C-174.04097426 54.76659982 -176.68186265 57.01269894 -179.5625 59.59375 C-180.13033203 60.13 -180.69816406 60.66625 -181.28320312 61.21875 C-182.67330453 62.52708073 -184.08459291 63.81283861 -185.5 65.09375 C-184.654375 66.08375 -183.80875 67.07375 -182.9375 68.09375 C-182.39867187 68.733125 -181.85984375 69.3725 -181.3046875 70.03125 C-180.08412936 71.42617359 -178.81588887 72.78054392 -177.5078125 74.09375 C-172.52888874 79.21264351 -172.52888874 79.21264351 -172.375 83.90625 C-174.01428571 88.55089286 -174.01428571 88.55089286 -176.5 90.09375 C-179.78803405 91.09445602 -181.63352647 91.48800281 -184.80078125 90.046875 C-187.12550776 88.36472846 -188.63960104 86.91472729 -190.48828125 84.7734375 C-197.78464842 76.11889308 -197.78464842 76.11889308 -208.19604492 72.75830078 C-211.33129095 72.70139211 -214.37572688 72.80972517 -217.5 73.09375 C-217.6134375 74.12757812 -217.726875 75.16140625 -217.84375 76.2265625 C-219.55753644 86.32566118 -225.38506431 94.96949118 -233.5 101.09375 C-241.0989844 105.73648854 -248.39830022 109.21425806 -257.39398193 109.22505188 C-258.5995575 109.22906006 -259.80513306 109.23306824 -261.04724121 109.23719788 C-263.02657654 109.2364048 -263.02657654 109.2364048 -265.04589844 109.2355957 C-266.45221058 109.23862847 -267.85852174 109.24215025 -269.26483154 109.24612427 C-272.29209248 109.25400536 -275.31934166 109.25915524 -278.34661102 109.26241493 C-283.13786916 109.26833376 -287.92905336 109.28488292 -292.72027588 109.30375671 C-294.36191936 109.31009394 -296.00356288 109.31641957 -297.64520645 109.32273388 C-298.46730622 109.32589969 -299.28940598 109.3290655 -300.13641787 109.33232725 C-311.28852328 109.37436764 -322.44059405 109.40737143 -333.59277344 109.41967773 C-341.11834996 109.42806737 -348.64374307 109.45059112 -356.16922784 109.4890334 C-360.14896178 109.50876328 -364.12842174 109.52120889 -368.1082077 109.51619911 C-371.85451433 109.5115406 -375.60030212 109.52542292 -379.34650421 109.55321121 C-381.36786124 109.56337544 -383.38928755 109.5538912 -385.41064453 109.54371643 C-395.1370588 109.60460231 -395.1370588 109.60460231 -403.5 114.09375 C-407.45478581 118.76118113 -406.92254816 123.79506659 -406.88768005 129.60118103 C-406.89306559 130.67111048 -406.89845113 131.74103993 -406.90399987 132.84339148 C-406.91832693 136.43469185 -406.91116383 140.02562611 -406.90405273 143.61694336 C-406.90975379 146.18919675 -406.91671702 148.76144761 -406.92485046 151.33369446 C-406.94204759 157.59890452 -406.94287661 163.86401434 -406.93763756 170.12924188 C-406.93359634 175.22156856 -406.93503884 180.31386561 -406.94038582 185.40619087 C-406.94113424 186.13092573 -406.94188266 186.85566059 -406.94265376 187.60235711 C-406.94418524 189.07464906 -406.94572359 190.546941 -406.94726873 192.01923294 C-406.96099706 205.8264624 -406.95555374 219.63363521 -406.94408352 233.44086338 C-406.93415065 246.07214116 -406.94709209 258.70327247 -406.97101771 271.33452766 C-406.99540075 284.30501252 -407.00501856 297.27542913 -406.99836498 310.24593645 C-406.994871 317.52762236 -406.99711658 324.8091956 -407.01461601 332.09086418 C-407.03086503 338.93713782 -407.02616873 345.78312689 -407.00731087 352.62939262 C-407.00361522 355.14407802 -407.00676168 357.65878401 -407.01719666 360.17345047 C-407.03034077 363.60240465 -407.01891627 367.03042191 -407.00120544 370.45933533 C-407.01081045 371.45787613 -407.02041546 372.45641694 -407.03031152 373.48521656 C-406.97021297 379.12816798 -406.57462332 382.82154986 -402.5 387.09375 C-396.74493309 390.54938679 -391.42056577 390.51939322 -384.82798767 390.47470093 C-383.76451648 390.4793809 -382.70104529 390.48406087 -381.60534769 390.48888266 C-378.04788751 390.50083244 -374.49081254 390.49137521 -370.93334961 390.48193359 C-368.38050614 390.48599926 -365.82766443 390.49134111 -363.27482605 390.49786377 C-357.06468215 390.51012277 -350.85468052 390.50832925 -344.64453476 390.49962585 C-339.59707031 390.49284527 -334.54963635 390.49193419 -329.50216866 390.4951973 C-328.42379892 390.49588684 -328.42379892 390.49588684 -327.32364394 390.49659032 C-325.86310906 390.49754952 -324.40257418 390.49852216 -322.94203932 390.4995081 C-309.25402018 390.50805809 -295.56606137 390.49823369 -281.87805212 390.482107 C-270.13603776 390.4687013 -258.39411237 390.47103472 -246.65209961 390.48486328 C-233.01085383 390.50092108 -219.36966088 390.50723716 -205.72840697 390.49802649 C-204.27360985 390.49707086 -202.81881272 390.49612774 -201.36401558 390.4951973 C-200.29037635 390.49450306 -200.29037635 390.49450306 -199.19504745 390.49379479 C-194.15380654 390.49120571 -189.11259917 390.49557406 -184.07136345 390.50263596 C-177.28583095 390.51193255 -170.50049248 390.50530539 -163.71496773 390.48795319 C-161.22285873 390.48398214 -158.7307356 390.48513291 -156.2386322 390.49174118 C-152.84057236 390.49992192 -149.44305391 390.48967644 -146.04502869 390.47470093 C-145.05563402 390.48139309 -144.06623935 390.48808526 -143.04686302 390.49498022 C-136.53507347 390.43920159 -132.13745866 389.51736066 -127.1875 384.96875 C-124.88837067 381.05171485 -124.3083132 377.61436377 -124.5 373.09375 C-125.82406151 368.96579354 -127.66267298 366.27050452 -131.35858917 363.92393875 C-136.49866011 361.9312202 -142.31899014 362.54561723 -147.75683594 362.57958984 C-149.21618895 362.57412508 -150.67553622 362.56688135 -152.13487244 362.55799866 C-155.27294421 362.54267964 -158.41068911 362.5398525 -161.54878998 362.54676437 C-166.52787425 362.55758892 -171.50662039 362.54011853 -176.48565674 362.51895142 C-184.3794978 362.48869229 -192.27323838 362.47699859 -200.16713262 362.47337496 C-214.25362518 362.46674347 -228.34004529 362.43732802 -242.42645288 362.3882786 C-247.35786448 362.37194523 -252.28913142 362.36661395 -257.22056699 362.36960232 C-296.27613788 362.37958858 -329.1466722 357.93257798 -358.5 329.53125 C-376.79479353 311.22476277 -387.61128229 285.07828233 -387.82910156 259.28735352 C-387.82362305 258.15096436 -387.81814453 257.0145752 -387.8125 255.84375 C-387.80831055 254.65515381 -387.80412109 253.46655762 -387.79980469 252.24194336 C-387.6875142 243.49821776 -386.93567733 235.52899617 -384.5 227.09375 C-384.23316406 226.10375 -383.96632813 225.11375 -383.69140625 224.09375 C-379.58924319 210.38340946 -372.60865534 198.07125015 -363.5 187.09375 C-362.81421875 186.24425781 -362.1284375 185.39476562 -361.421875 184.51953125 C-350.16551067 171.24119036 -335.47928681 161.55027563 -319.3125 155.34375 C-318.59553955 155.06176758 -317.8785791 154.77978516 -317.13989258 154.48925781 C-302.28711818 149.08237636 -286.99754301 148.65627543 -271.38793945 148.70898438 C-269.32622479 148.70486901 -267.26451245 148.69940248 -265.20280457 148.69270325 C-260.80011118 148.68106846 -256.39754284 148.67846105 -251.99483681 148.68305969 C-245.03133974 148.68991759 -238.06800502 148.67392282 -231.10453796 148.65466309 C-215.08344521 148.61376499 -199.06235778 148.60225015 -183.04122162 148.59113312 C-168.31745709 148.5806208 -153.59377156 148.56388148 -138.87005585 148.52303743 C-131.94802152 148.50468956 -125.02617561 148.50078488 -118.10412276 148.50797272 C-113.80669562 148.50949309 -109.50936321 148.49872165 -105.21196175 148.48459435 C-103.21973782 148.48058865 -101.22749595 148.48172187 -99.23527908 148.48836708 C-96.51646873 148.49674034 -93.79831482 148.48676835 -91.07954407 148.47229004 C-89.89750498 148.48263094 -89.89750498 148.48263094 -88.69158632 148.49318075 C-83.87928223 148.44324112 -80.58296096 147.6534732 -76.5 145.09375 C-71.89423392 140.05887994 -71.92896921 135.54707438 -71.98583984 129.07202148 C-71.97871475 128.07765579 -71.97158966 127.0832901 -71.96424866 126.05879211 C-71.94498057 122.7772733 -71.95324855 119.49640035 -71.9609375 116.21484375 C-71.95102563 113.92284713 -71.93908252 111.63085847 -71.92520142 109.33888245 C-71.89282497 103.30224227 -71.882448 97.26578338 -71.87835693 91.22906494 C-71.86960896 81.59277001 -71.833815 71.95662443 -71.7861824 62.32045174 C-71.77368962 58.96995992 -71.7743481 55.61965996 -71.77645874 52.26914978 C-71.74321815 34.44345119 -71.68345139 17.29919111 -58.5625 3.53125 C-42.26043111 -11.140612 -17.89460278 -13.64463462 0 0 Z " fill="#BEE09E" transform="translate(495.5,20.90625)"/>
<path d="M0 0 C8.83961747 7.47158143 15.56354376 17.04835826 16.78324699 28.8296814 C16.89503101 31.93543674 16.91687496 35.02896385 16.90405273 38.13671875 C16.91434761 39.89726341 16.91434761 39.89726341 16.92485046 41.69337463 C16.94308177 45.55612451 16.9392838 49.4184665 16.93359375 53.28125 C16.93607422 55.3009059 16.94042272 57.32055199 16.94494683 59.34020424 C16.95896002 65.6902261 16.95746151 72.04011338 16.94604492 78.39013672 C16.93460523 84.89587297 16.94857622 91.40119496 16.9754414 97.90687656 C16.99776579 103.52768852 17.00419743 109.14837209 16.99836498 114.76922512 C16.99502907 118.11041791 16.99894293 121.45113764 17.01461601 124.79232788 C17.14039658 156.01793704 10.68260843 181.16455114 -10.5 205.09375 C-11.11230469 205.78984375 -11.72460938 206.4859375 -12.35546875 207.203125 C-29.1421045 225.09932516 -54.34870292 235.92169031 -78.69292665 237.20978117 C-84.80540775 237.3949865 -90.91982601 237.36290009 -97.03442383 237.34912109 C-99.08244974 237.3518758 -101.13047457 237.35555859 -103.17849731 237.36009216 C-107.56431844 237.36816081 -111.95008872 237.37038369 -116.33591652 237.36814499 C-123.27441655 237.36529758 -130.21281597 237.3797149 -137.15129089 237.39712524 C-156.87289954 237.44402289 -176.59450011 237.46810399 -196.31616211 237.47460938 C-207.22686915 237.47836013 -218.13746108 237.4963837 -229.04811877 237.52970374 C-235.9428699 237.54990095 -242.83732388 237.55229712 -249.7320925 237.54142356 C-254.01981789 237.5388154 -258.30737029 237.55282438 -262.59505081 237.57150459 C-264.57997825 237.57682312 -266.56493761 237.57533562 -268.54985237 237.56646919 C-271.26397911 237.55532438 -273.97693845 237.56880624 -276.69099426 237.58822632 C-277.47203217 237.57910166 -278.25307007 237.569977 -279.0577758 237.56057584 C-285.36503493 237.64811487 -290.71139871 239.48524588 -295.375 243.84765625 C-298.85782805 249.44678607 -299.577229 254.58050428 -298.5 261.09375 C-295.89088315 266.40861765 -292.27852519 269.98846019 -286.75072861 272.18740273 C-283.29748951 273.15021267 -280.44348536 273.34425615 -276.86334229 273.3453064 C-276.2216311 273.34827654 -275.57991991 273.35124667 -274.91876292 273.35430682 C-272.78201241 273.36190638 -270.6455401 273.35546929 -268.50878906 273.34912109 C-266.97062495 273.35187318 -265.43246225 273.3555544 -263.89430237 273.36009216 C-260.58606292 273.3681919 -257.27789102 273.37037555 -253.96964264 273.36814499 C-248.72179193 273.36530179 -243.47407479 273.37970502 -238.22625732 273.39712524 C-223.30434197 273.44404479 -208.38243508 273.46806003 -193.46044922 273.47460938 C-185.21549791 273.47838081 -176.97069745 273.49658115 -168.72581077 273.52970374 C-164.37242588 273.54648343 -160.01931512 273.55582252 -155.66590118 273.54676437 C-120.83480478 273.48036545 -120.83480478 273.48036545 -106.5 278.09375 C-105.10834877 278.53096123 -105.10834877 278.53096123 -103.68858337 278.977005 C-101.65301067 279.65355666 -99.71350273 280.41997738 -97.75 281.28125 C-97.06736084 281.5709668 -96.38472168 281.86068359 -95.68139648 282.15917969 C-88.01973336 285.54305871 -78.22563425 290.00529862 -73.5 297.09375 C-73.0625 300.53125 -73.0625 300.53125 -73.5 304.09375 C-75.9922889 306.95255197 -77.52246735 307.97070393 -81.29296875 308.4453125 C-85.41212614 307.99376053 -87.3505395 306.46588988 -90.6875 304.03125 C-96.21379822 300.23328554 -101.77480235 297.48121384 -108.0625 295.15625 C-108.80459717 294.87450928 -109.54669434 294.59276855 -110.3112793 294.30249023 C-122.02341232 290.15499785 -134.08792055 289.80610965 -146.38110352 289.87011719 C-147.93003333 289.87064281 -149.47896372 289.87020238 -151.02789307 289.86888123 C-154.33657722 289.8675581 -157.64518634 289.87189585 -160.95385933 289.88048553 C-166.19641267 289.89297598 -171.43883061 289.88586218 -176.68138123 289.87506104 C-191.57986182 289.84673444 -206.47822248 289.83416812 -221.37670898 289.86376953 C-229.62572027 289.87999552 -237.8744323 289.87475383 -246.12341255 289.84597325 C-251.32463333 289.82896902 -256.52494179 289.83774417 -261.72610295 289.86602831 C-264.97180778 289.87725419 -268.21705083 289.86318777 -271.46269226 289.84221077 C-272.95573207 289.8374749 -274.44884673 289.84277954 -275.94180107 289.85944176 C-288.18465699 289.98696313 -297.07698431 287.09353218 -306.5 279.09375 C-313.82738796 270.11179057 -316.6008744 261.6529312 -315.5 250.09375 C-313.78046242 241.09483666 -308.55212682 233.07295146 -301.4296875 227.375 C-293.93997099 222.40207082 -286.82565842 220.94269457 -277.97114563 220.96917725 C-277.10175879 220.9677671 -276.23237195 220.96635695 -275.33664006 220.96490407 C-272.41752575 220.9612484 -269.49845995 220.96458888 -266.5793457 220.96777344 C-264.48813845 220.96637867 -262.39693148 220.96447936 -260.3057251 220.96211243 C-255.79700303 220.95761269 -251.28829007 220.95575928 -246.77956581 220.95565033 C-239.63770369 220.95450941 -232.49589321 220.94166469 -225.35404968 220.92608643 C-224.1479894 220.92351357 -222.94192913 220.92094072 -221.69932157 220.9182899 C-219.2325598 220.91302299 -216.76579807 220.90773751 -214.29903638 220.90243387 C-197.67290125 220.86736194 -181.0468295 220.84076533 -164.4206543 220.84326172 C-153.20666171 220.84485496 -141.99284478 220.82870225 -130.77890843 220.79255509 C-124.8499398 220.77416331 -118.92126416 220.76469246 -112.99227333 220.77703094 C-107.40330762 220.78854797 -101.81486411 220.77657718 -96.22596741 220.74739647 C-94.18677905 220.74080735 -92.1475421 220.74253318 -90.10837364 220.75369453 C-64.21155704 220.88355255 -42.01535646 212.57203541 -23.01171875 194.76171875 C-1.42338649 172.27853334 0.81191858 145.19390782 0.90625 115.55078125 C0.91190475 114.34386816 0.91755951 113.13695507 0.92338562 111.89346886 C0.95317708 105.51889575 0.97176262 99.14441109 0.98046875 92.76977539 C0.9914732 86.21652404 1.03965644 79.66409632 1.09641266 73.11110401 C1.13376395 68.03823998 1.14408136 62.96557374 1.1471405 57.89258385 C1.1531621 55.4770013 1.16911209 53.06142091 1.19551086 50.64597511 C1.6864043 31.48713201 1.6864043 31.48713201 -7.24206543 15.10456848 C-12.94752742 9.38862911 -20.11209719 7.94318044 -27.9375 7.59375 C-35.26157191 7.79054165 -40.77232058 9.84913919 -46.30859375 14.66796875 C-53.25798358 22.10260276 -55.09599969 30.20202139 -54.96655273 40.11450195 C-54.97001205 41.71152954 -54.97001205 41.71152954 -54.97354126 43.34082031 C-54.97615952 45.6389817 -54.96978393 47.93716763 -54.95528984 50.23528481 C-54.93329536 53.88149788 -54.93715641 57.5268862 -54.94776917 61.17314148 C-54.96937599 70.22849348 -54.95212825 79.28365977 -54.92626953 88.33898926 C-54.90480357 95.99732856 -54.90301225 103.65513624 -54.92918587 111.31346703 C-54.93351238 114.889773 -54.90896839 118.46513617 -54.88365173 122.04133606 C-54.86724604 146.13901919 -54.86724604 146.13901919 -63.6875 156.03125 C-74.30578233 164.96752116 -84.23818973 164.80232607 -97.51928711 164.70556641 C-99.54902637 164.70911142 -101.57876277 164.7148934 -103.60848999 164.72273254 C-107.96663073 164.73487982 -112.32437946 164.73148067 -116.68250847 164.71590042 C-123.5902537 164.69148998 -130.49765915 164.70311927 -137.40541077 164.71957397 C-149.59152991 164.74404316 -161.77749356 164.73828297 -173.96362305 164.72576904 C-192.27281113 164.7071917 -210.58196787 164.71221407 -228.89113432 164.74580324 C-235.74016916 164.7572374 -242.58895338 164.75298625 -249.43797386 164.73578286 C-253.72400209 164.72781203 -258.00995946 164.73218253 -262.29598618 164.73949242 C-264.26340152 164.74029382 -266.23082738 164.73606588 -268.19821739 164.72604942 C-298.13647226 164.58117457 -323.59033265 170.52066618 -345.99511719 191.59765625 C-362.31901383 207.82621541 -371.6194748 231.39116679 -371.875 254.21875 C-371.94264483 279.59190172 -362.09383827 301.8310833 -344.875 320.21875 C-326.57411043 337.83973036 -303.1390201 345.78014079 -278.07885742 345.57617188 C-276.50815493 345.57836516 -274.9374541 345.58237312 -273.36676025 345.58802795 C-270.02039145 345.59650595 -266.67434558 345.59293491 -263.32799339 345.5796051 C-258.0266076 345.55904832 -252.72553826 345.56933824 -247.42414856 345.5838623 C-236.17856945 345.61046138 -224.933097 345.60391028 -213.6875 345.59375 C-201.52445306 345.58277311 -189.36157266 345.5776629 -177.19855386 345.61104441 C-171.93782877 345.62434787 -166.67758985 345.61856088 -161.41689432 345.59767914 C-158.13857045 345.58864784 -154.86043114 345.59620676 -151.5821228 345.60809135 C-150.0725319 345.61020847 -148.56291264 345.60558169 -147.05336952 345.5933857 C-134.80329791 345.50005412 -124.48711414 346.99215338 -115.44921875 355.8515625 C-109.03122033 363.23418994 -107.4972222 370.63811614 -108.01953125 380.24609375 C-109.02359257 388.28674741 -112.71232467 394.1646486 -118.59765625 399.625 C-123.73517197 403.59154191 -129.51496594 406.21041409 -136.03669643 406.2335577 C-136.9723026 406.23924894 -137.90790877 406.24494018 -138.87186664 406.25080389 C-139.90160777 406.25198376 -140.9313489 406.25316364 -141.99229431 406.25437927 C-143.63115242 406.262011 -143.63115242 406.262011 -145.30311877 406.26979691 C-148.9832465 406.28555803 -152.66335454 406.2940562 -156.34350586 406.30249023 C-158.97469204 406.31202589 -161.60587694 406.32191692 -164.23706055 406.33213806 C-172.14842061 406.3614209 -180.05979219 406.38061237 -187.9711872 406.39753041 C-190.20674117 406.40232637 -192.44229464 406.4073096 -194.6778481 406.41233563 C-208.56668314 406.44331377 -222.45552238 406.4699937 -236.34438229 406.48675442 C-239.5617009 406.4907038 -242.77901943 406.4947068 -245.99633789 406.4987793 C-246.79596903 406.49978766 -247.59560018 406.50079602 -248.41946257 406.50183494 C-261.36047938 406.51882603 -274.30130444 406.55991689 -287.24222773 406.61080229 C-300.53584593 406.66264322 -313.82936571 406.69170541 -327.12308413 406.6989513 C-334.58393805 406.70360604 -342.04447824 406.71827742 -349.50523186 406.7586956 C-355.86231442 406.79309308 -362.21902665 406.80689607 -368.5761969 406.79427146 C-371.81644787 406.78846645 -375.055757 406.79546545 -378.29592323 406.8224411 C-404.44303426 407.02843002 -404.44303426 407.02843002 -414.60153103 398.2849493 C-422.16690315 390.54929742 -424.10114668 381.39731909 -424.02139282 370.91152954 C-424.02904392 369.82931071 -424.03669501 368.74709187 -424.04457796 367.63207853 C-424.06511078 364.02876903 -424.0572784 360.42610451 -424.04931641 356.82275391 C-424.05801642 354.2299389 -424.06838465 351.63712904 -424.08029175 349.04432678 C-424.10571423 342.74635733 -424.10938217 336.4485587 -424.10469122 330.15054657 C-424.10111661 325.0283478 -424.10464179 319.90620064 -424.11314011 314.78400803 C-424.11433048 314.05335687 -424.11552086 313.32270572 -424.11674731 312.56991362 C-424.11917096 311.08531273 -424.12159923 309.60071184 -424.12403207 308.11611097 C-424.14575549 294.21185707 -424.14147113 280.30770032 -424.12926237 266.403441 C-424.1189259 253.70210326 -424.14143455 241.00107239 -424.17945881 228.29979534 C-424.21826515 215.23644846 -424.23471901 202.17324657 -424.22721231 189.1098417 C-424.22339575 181.78438423 -424.22828979 174.45918788 -424.25664139 167.13377762 C-424.28303942 160.24380733 -424.27788246 153.35445977 -424.25181961 146.46449089 C-424.24709541 143.94103092 -424.25253125 141.41752758 -424.26906586 138.89411736 C-424.42813788 112.72337354 -424.42813788 112.72337354 -415.50486183 102.89660072 C-408.23163085 95.68144439 -400.28872618 93.64227539 -390.24816895 93.59925842 C-388.93417114 93.61371506 -387.62017334 93.62817169 -386.26635742 93.64306641 C-384.84609501 93.64415673 -383.42583017 93.64339822 -382.00556946 93.64094543 C-378.96243768 93.63916526 -375.91967621 93.64943505 -372.87660789 93.66902542 C-368.05438795 93.69908613 -363.23251946 93.69631018 -358.41023254 93.68832397 C-346.43324323 93.67327109 -334.45635528 93.69489068 -322.47943115 93.73614502 C-313.16678004 93.76816799 -303.85454071 93.78726617 -294.54184037 93.76463258 C-289.75865538 93.75443603 -284.97662138 93.77151255 -280.19359052 93.80977273 C-277.20466992 93.82743757 -274.21618519 93.81985739 -271.2272625 93.80562401 C-269.20423611 93.80331665 -267.181242 93.83067889 -265.15841675 93.85929871 C-255.74234774 93.77612938 -247.61561448 91.72432084 -240.46995831 85.25618935 C-235.25995984 79.60428585 -232.8453449 73.49689745 -232.25 65.90625 C-232.75718795 58.17163376 -234.94343061 50.70760361 -240.5 45.09375 C-247.99607007 39.27035672 -255.07593896 37.79647517 -264.38916016 37.83837891 C-265.36872177 37.83475845 -266.34828339 37.831138 -267.35752869 37.82740784 C-269.47731217 37.82053159 -271.59711329 37.81800507 -273.7169075 37.81935501 C-277.07070119 37.82032162 -280.42417563 37.80736354 -283.77792358 37.79037476 C-293.31058319 37.74413092 -302.8432086 37.71947924 -312.37597656 37.71289062 C-318.21204743 37.70788468 -324.04778228 37.6836869 -329.88373947 37.64756393 C-332.1077002 37.63774989 -334.33170705 37.63544268 -336.55568314 37.64073563 C-339.66069934 37.64778191 -342.764708 37.63057568 -345.86962891 37.60791016 C-346.79024612 37.61608261 -347.71086334 37.62425507 -348.65937805 37.63267517 C-354.85832244 37.55197213 -354.85832244 37.55197213 -358.03939819 35.28036499 C-360.12149072 32.16333836 -360.5 29.82353427 -360.5 26.09375 C-358.65863826 23.68093117 -357.19698174 22.44224087 -354.5 21.09375 C-351.48701202 20.98450748 -348.49679191 20.93640767 -345.4831543 20.93261719 C-344.54789413 20.92765228 -343.61263397 20.92268738 -342.64903259 20.91757202 C-339.5407539 20.90291663 -336.43252639 20.89613937 -333.32421875 20.890625 C-331.16103616 20.88487206 -328.99785358 20.87911434 -326.83467102 20.87335205 C-322.28748334 20.86282956 -317.74031338 20.85699647 -313.19311523 20.85351562 C-307.39428063 20.84805771 -301.59568404 20.82409317 -295.79692364 20.79554367 C-291.32106369 20.77681555 -286.84525959 20.77170609 -282.36936378 20.77017975 C-280.23374964 20.7671707 -278.09813607 20.75920193 -275.96256065 20.74599457 C-260.39847317 20.65668776 -246.63539834 20.64833106 -233.5 30.09375 C-232.85289062 30.54621094 -232.20578125 30.99867187 -231.5390625 31.46484375 C-224.61371831 36.80249987 -220.42028429 44.9818492 -217.5 53.09375 C-217.5 54.41375 -217.5 55.73375 -217.5 57.09375 C-207.44817996 58.07123232 -207.44817996 58.07123232 -198.25488281 54.59033203 C-194.05437349 50.94703313 -190.37271357 46.85011084 -186.83422852 42.56835938 C-184.86459082 40.39148624 -183.61425672 40.10898423 -180.6875 39.71875 C-177.5 40.09375 -177.5 40.09375 -174.5625 42.09375 C-172.25443071 45.45094169 -172.20663956 47.04749316 -172.82543945 51.0078125 C-174.04097426 54.76659982 -176.68186265 57.01269894 -179.5625 59.59375 C-180.13033203 60.13 -180.69816406 60.66625 -181.28320312 61.21875 C-182.67330453 62.52708073 -184.08459291 63.81283861 -185.5 65.09375 C-184.654375 66.08375 -183.80875 67.07375 -182.9375 68.09375 C-182.39867187 68.733125 -181.85984375 69.3725 -181.3046875 70.03125 C-180.08412936 71.42617359 -178.81588887 72.78054392 -177.5078125 74.09375 C-172.52888874 79.21264351 -172.52888874 79.21264351 -172.375 83.90625 C-174.01428571 88.55089286 -174.01428571 88.55089286 -176.5 90.09375 C-179.78803405 91.09445602 -181.63352647 91.48800281 -184.80078125 90.046875 C-187.12550776 88.36472846 -188.63960104 86.91472729 -190.48828125 84.7734375 C-197.78464842 76.11889308 -197.78464842 76.11889308 -208.19604492 72.75830078 C-211.33129095 72.70139211 -214.37572688 72.80972517 -217.5 73.09375 C-217.67015625 74.64449219 -217.67015625 74.64449219 -217.84375 76.2265625 C-219.55753644 86.32566118 -225.38506431 94.96949118 -233.5 101.09375 C-241.0989844 105.73648854 -248.39830022 109.21425806 -257.39398193 109.22505188 C-258.5995575 109.22906006 -259.80513306 109.23306824 -261.04724121 109.23719788 C-263.02657654 109.2364048 -263.02657654 109.2364048 -265.04589844 109.2355957 C-266.45221058 109.23862847 -267.85852174 109.24215025 -269.26483154 109.24612427 C-272.29209248 109.25400536 -275.31934166 109.25915524 -278.34661102 109.26241493 C-283.13786916 109.26833376 -287.92905336 109.28488292 -292.72027588 109.30375671 C-294.36191936 109.31009394 -296.00356288 109.31641957 -297.64520645 109.32273388 C-298.8783561 109.3274826 -298.8783561 109.3274826 -300.13641787 109.33232725 C-311.28852328 109.37436764 -322.44059405 109.40737143 -333.59277344 109.41967773 C-341.11834996 109.42806737 -348.64374307 109.45059112 -356.16922784 109.4890334 C-360.14896178 109.50876328 -364.12842174 109.52120889 -368.1082077 109.51619911 C-371.85451433 109.5115406 -375.60030212 109.52542292 -379.34650421 109.55321121 C-381.36786124 109.56337544 -383.38928755 109.5538912 -385.41064453 109.54371643 C-395.1370588 109.60460231 -395.1370588 109.60460231 -403.5 114.09375 C-407.45478581 118.76118113 -406.92254816 123.79506659 -406.88768005 129.60118103 C-406.89306559 130.67111048 -406.89845113 131.74103993 -406.90399987 132.84339148 C-406.91832693 136.43469185 -406.91116383 140.02562611 -406.90405273 143.61694336 C-406.90975379 146.18919675 -406.91671702 148.76144761 -406.92485046 151.33369446 C-406.94204759 157.59890452 -406.94287661 163.86401434 -406.93763756 170.12924188 C-406.93359634 175.22156856 -406.93503884 180.31386561 -406.94038582 185.40619087 C-406.94150845 186.49329316 -406.94150845 186.49329316 -406.94265376 187.60235711 C-406.94418524 189.07464906 -406.94572359 190.546941 -406.94726873 192.01923294 C-406.96099706 205.8264624 -406.95555374 219.63363521 -406.94408352 233.44086338 C-406.93415065 246.07214116 -406.94709209 258.70327247 -406.97101771 271.33452766 C-406.99540075 284.30501252 -407.00501856 297.27542913 -406.99836498 310.24593645 C-406.994871 317.52762236 -406.99711658 324.8091956 -407.01461601 332.09086418 C-407.03086503 338.93713782 -407.02616873 345.78312689 -407.00731087 352.62939262 C-407.00361522 355.14407802 -407.00676168 357.65878401 -407.01719666 360.17345047 C-407.03034077 363.60240465 -407.01891627 367.03042191 -407.00120544 370.45933533 C-407.01081045 371.45787613 -407.02041546 372.45641694 -407.03031152 373.48521656 C-406.97021297 379.12816798 -406.57462332 382.82154986 -402.5 387.09375 C-396.74493309 390.54938679 -391.42056577 390.51939322 -384.82798767 390.47470093 C-383.76451648 390.4793809 -382.70104529 390.48406087 -381.60534769 390.48888266 C-378.04788751 390.50083244 -374.49081254 390.49137521 -370.93334961 390.48193359 C-368.38050614 390.48599926 -365.82766443 390.49134111 -363.27482605 390.49786377 C-357.06468215 390.51012277 -350.85468052 390.50832925 -344.64453476 390.49962585 C-339.59707031 390.49284527 -334.54963635 390.49193419 -329.50216866 390.4951973 C-328.42379892 390.49588684 -328.42379892 390.49588684 -327.32364394 390.49659032 C-325.86310906 390.49754952 -324.40257418 390.49852216 -322.94203932 390.4995081 C-309.25402018 390.50805809 -295.56606137 390.49823369 -281.87805212 390.482107 C-270.13603776 390.4687013 -258.39411237 390.47103472 -246.65209961 390.48486328 C-233.01085383 390.50092108 -219.36966088 390.50723716 -205.72840697 390.49802649 C-204.27360985 390.49707086 -202.81881272 390.49612774 -201.36401558 390.4951973 C-200.29037635 390.49450306 -200.29037635 390.49450306 -199.19504745 390.49379479 C-194.15380654 390.49120571 -189.11259917 390.49557406 -184.07136345 390.50263596 C-177.28583095 390.51193255 -170.50049248 390.50530539 -163.71496773 390.48795319 C-161.22285873 390.48398214 -158.7307356 390.48513291 -156.2386322 390.49174118 C-152.84057236 390.49992192 -149.44305391 390.48967644 -146.04502869 390.47470093 C-145.05563402 390.48139309 -144.06623935 390.48808526 -143.04686302 390.49498022 C-136.53507347 390.43920159 -132.13745866 389.51736066 -127.1875 384.96875 C-124.88837067 381.05171485 -124.3083132 377.61436377 -124.5 373.09375 C-125.82406151 368.96579354 -127.66267298 366.27050452 -131.35858917 363.92393875 C-136.49866011 361.9312202 -142.31899014 362.54561723 -147.75683594 362.57958984 C-149.21618895 362.57412508 -150.67553622 362.56688135 -152.13487244 362.55799866 C-155.27294421 362.54267964 -158.41068911 362.5398525 -161.54878998 362.54676437 C-166.52787425 362.55758892 -171.50662039 362.54011853 -176.48565674 362.51895142 C-184.3794978 362.48869229 -192.27323838 362.47699859 -200.16713262 362.47337496 C-214.25362518 362.46674347 -228.34004529 362.43732802 -242.42645288 362.3882786 C-247.35786448 362.37194523 -252.28913142 362.36661395 -257.22056699 362.36960232 C-296.27613788 362.37958858 -329.1466722 357.93257798 -358.5 329.53125 C-376.79479353 311.22476277 -387.61128229 285.07828233 -387.82910156 259.28735352 C-387.82362305 258.15096436 -387.81814453 257.0145752 -387.8125 255.84375 C-387.80621582 254.06085571 -387.80621582 254.06085571 -387.79980469 252.24194336 C-387.6875142 243.49821776 -386.93567733 235.52899617 -384.5 227.09375 C-384.23316406 226.10375 -383.96632813 225.11375 -383.69140625 224.09375 C-379.58924319 210.38340946 -372.60865534 198.07125015 -363.5 187.09375 C-362.81421875 186.24425781 -362.1284375 185.39476562 -361.421875 184.51953125 C-350.16551067 171.24119036 -335.47928681 161.55027563 -319.3125 155.34375 C-318.59553955 155.06176758 -317.8785791 154.77978516 -317.13989258 154.48925781 C-302.28711818 149.08237636 -286.99754301 148.65627543 -271.38793945 148.70898438 C-269.32622479 148.70486901 -267.26451245 148.69940248 -265.20280457 148.69270325 C-260.80011118 148.68106846 -256.39754284 148.67846105 -251.99483681 148.68305969 C-245.03133974 148.68991759 -238.06800502 148.67392282 -231.10453796 148.65466309 C-215.08344521 148.61376499 -199.06235778 148.60225015 -183.04122162 148.59113312 C-168.31745709 148.5806208 -153.59377156 148.56388148 -138.87005585 148.52303743 C-131.94802152 148.50468956 -125.02617561 148.50078488 -118.10412276 148.50797272 C-113.80669562 148.50949309 -109.50936321 148.49872165 -105.21196175 148.48459435 C-103.21973782 148.48058865 -101.22749595 148.48172187 -99.23527908 148.48836708 C-96.51646873 148.49674034 -93.79831482 148.48676835 -91.07954407 148.47229004 C-89.89750498 148.48263094 -89.89750498 148.48263094 -88.69158632 148.49318075 C-83.87928223 148.44324112 -80.58296096 147.6534732 -76.5 145.09375 C-71.89423392 140.05887994 -71.92896921 135.54707438 -71.98583984 129.07202148 C-71.97871475 128.07765579 -71.97158966 127.0832901 -71.96424866 126.05879211 C-71.94498057 122.7772733 -71.95324855 119.49640035 -71.9609375 116.21484375 C-71.95102563 113.92284713 -71.93908252 111.63085847 -71.92520142 109.33888245 C-71.89282497 103.30224227 -71.882448 97.26578338 -71.87835693 91.22906494 C-71.86960896 81.59277001 -71.833815 71.95662443 -71.7861824 62.32045174 C-71.77368962 58.96995992 -71.7743481 55.61965996 -71.77645874 52.26914978 C-71.74321815 34.44345119 -71.68345139 17.29919111 -58.5625 3.53125 C-42.26043111 -11.140612 -17.89460278 -13.64463462 0 0 Z " fill="#010100" transform="translate(495.5,20.90625)"/>
<path d="M0 0 C0.82491943 -0.02143066 1.64983887 -0.04286133 2.49975586 -0.06494141 C7.20797299 -0.09086084 10.3946269 0.12909261 14.1875 3.25 C15.36102727 6.22293575 15.30831681 7.78869947 14.5 10.875 C13.00531348 13.57967084 11.79681168 14.62504116 9.1875 16.25 C6.92016602 16.65063477 6.92016602 16.65063477 4.44140625 16.69140625 C3.07169678 16.72850708 3.07169678 16.72850708 1.67431641 16.76635742 C0.70929199 16.78158447 -0.25573242 16.79681152 -1.25 16.8125 C-3.25145746 16.8782413 -5.2527709 16.94852956 -7.25390625 17.0234375 C-8.21699707 17.05920898 -9.18008789 17.09498047 -10.17236328 17.13183594 C-31.55252931 18.08874368 -52.56765745 28.13649328 -67.22705078 43.75732422 C-86.64466112 65.62281048 -90.5814268 89.90772551 -90.45947266 118.34960938 C-90.46626193 121.03093885 -90.47499444 123.71219989 -90.48602295 126.39350891 C-90.50807762 132.87512606 -90.50353453 139.35645123 -90.48895974 145.83807909 C-90.47759664 151.11303931 -90.47616687 156.38791859 -90.48157883 161.66288757 C-90.48272807 162.79563402 -90.48272807 162.79563402 -90.48390054 163.95126423 C-90.48549941 165.48610121 -90.48712049 167.02093817 -90.4887635 168.55577511 C-90.50296892 182.89619285 -90.48671053 197.23644992 -90.45976166 211.57684129 C-90.4374276 223.84053314 -90.44130921 236.10398821 -90.46435547 248.36767578 C-90.49120607 262.66215414 -90.50159611 276.95649223 -90.48629415 291.2509923 C-90.48470166 292.77969899 -90.4831298 294.3084057 -90.48157883 295.83711243 C-90.48042176 296.96489047 -90.48042176 296.96489047 -90.47924132 298.1154519 C-90.47495198 303.374666 -90.4821506 308.63378998 -90.49397659 313.89299011 C-90.50810367 320.3157455 -90.50399022 326.73819602 -90.47757287 333.16091716 C-90.46456978 336.42832984 -90.46180846 339.69514117 -90.47581863 342.96256447 C-90.53356025 357.80754999 -89.65933775 371.14661126 -84.8125 385.25 C-84.21373267 386.9952383 -84.21373267 386.9952383 -83.60286903 388.77573395 C-75.92047797 409.81555285 -58.61777119 425.20782513 -38.79296875 434.5234375 C-27.51617283 439.56997454 -16.84137704 441.39697608 -4.60240173 441.41062927 C-3.46869741 441.41571709 -2.33499308 441.42080491 -1.16693407 441.42604691 C2.63488456 441.44175206 6.4366842 441.45029157 10.23852539 441.45874023 C12.26941582 441.46546478 14.30030231 441.47296513 16.33118958 441.48058056 C25.20875023 441.51384698 34.0863223 441.53542003 42.9639248 441.55378041 C45.27887043 441.55858072 47.59381562 441.56356343 49.90876079 441.56858563 C64.31070868 441.59957206 78.71266073 441.62623394 93.11463261 441.64300442 C96.44824798 441.64695339 99.78186329 441.65095645 103.11547852 441.6550293 C103.94394912 441.65603766 104.77241973 441.65704602 105.62599551 441.65808494 C119.01662872 441.67505529 132.40707595 441.71612524 145.79761858 441.76705229 C159.57389047 441.81901101 173.35006718 441.84797093 187.12643617 441.8552013 C194.8496587 441.85984162 202.57257713 441.87435971 210.29570198 441.9149456 C216.8800898 441.9495067 223.46411858 441.96308109 230.0485918 441.95052146 C233.39946082 441.94475367 236.74896771 441.95151051 240.09981918 441.9786911 C267.43659813 442.18839626 290.52627702 436.98924875 311.1875 418.25 C311.81914062 417.71117187 312.45078125 417.17234375 313.1015625 416.6171875 C326.53269587 404.41264165 335.92828475 383.64381475 337.48730469 365.82299805 C337.62298651 362.33414293 337.65583669 358.86629173 337.625 355.375 C337.61146484 353.53083496 337.61146484 353.53083496 337.59765625 351.64941406 C337.27171204 334.55092419 331.59309011 320.97820122 322.9375 306.48046875 C321.1875 303.25 321.1875 303.25 321.1875 300.0625 C322.36214899 296.75879972 323.31409693 295.26914811 326.1875 293.25 C329.125 292.6875 329.125 292.6875 332.1875 293.25 C345.84902777 303.49614583 351.35740373 326.09379765 353.77734375 342.16796875 C356.86511462 369.30352279 350.00644243 397.43273765 332.875 419 C331.3355132 420.77027869 329.7724261 422.52028456 328.1875 424.25 C327.36636719 425.16394531 326.54523438 426.07789063 325.69921875 427.01953125 C307.48820038 446.30972107 281.91395074 457.25987583 255.48926926 458.36259937 C247.70092032 458.55349762 239.91120897 458.52239495 232.12109375 458.50878906 C229.50285749 458.51150311 226.884622 458.51506636 224.26638794 458.51940918 C217.92467663 458.52825015 211.58301296 458.52640498 205.24129987 458.5205839 C200.08207643 458.5160464 194.92286623 458.51546348 189.76364136 458.51763153 C189.02620774 458.517938 188.28877412 458.51824446 187.52899402 458.51856022 C186.030387 458.51919974 184.53177998 458.51984817 183.03317297 458.5205054 C169.01771039 458.52619318 155.00227408 458.51967526 140.98681581 458.50890467 C128.99022084 458.49997057 116.99366459 458.50152305 104.99707031 458.51074219 C91.02790853 458.52147235 77.05876971 458.525644 63.08960438 458.51951766 C61.5968558 458.51888064 60.10410722 458.51825189 58.61135864 458.51763153 C57.50998956 458.5171687 57.50998956 458.5171687 56.3863706 458.51669653 C51.24006782 458.51497781 46.09377975 458.51786683 40.94747925 458.52259064 C34.0067263 458.52882222 27.06604722 458.52431463 20.12530136 458.51280212 C17.58697505 458.51017091 15.04864256 458.51089412 12.51031876 458.51532745 C-23.45360115 458.57232119 -53.14537943 451.84680476 -79.41650391 425.71630859 C-90.45840527 414.1182569 -98.30263205 399.54695045 -102.8125 384.25 C-103.06818284 383.41175344 -103.32386568 382.57350687 -103.58729649 381.70985889 C-106.86715977 369.01807888 -106.24094455 356.05741825 -106.21655273 343.04370117 C-106.22062262 340.29092014 -106.22912881 337.53815647 -106.23735046 334.78538513 C-106.25446247 328.11064527 -106.2553943 321.43599986 -106.25013756 314.76124378 C-106.24608008 309.3302687 -106.24755805 303.89932133 -106.25288582 298.46834755 C-106.25363424 297.69250083 -106.25438266 296.91665411 -106.25515376 296.11729688 C-106.2566854 294.54066178 -106.25822375 292.96402669 -106.25976873 291.3873916 C-106.27346649 276.63363453 -106.26807548 261.87993062 -106.25658352 247.12617479 C-106.24665585 233.6622554 -106.25958858 220.19847353 -106.28351771 206.73457535 C-106.30796732 192.87217367 -106.31750211 179.00983587 -106.31086498 165.14741307 C-106.30738551 157.37981721 -106.30952011 149.61232698 -106.32711601 141.84474754 C-106.34191166 135.23192311 -106.34237825 128.61927871 -106.3250451 122.00645753 C-106.3165922 118.64010023 -106.31645218 115.27432429 -106.32969666 111.90794373 C-106.39280049 94.53291229 -105.57795151 78.61119783 -98.5625 62.4375 C-98.26585449 61.73866699 -97.96920898 61.03983398 -97.66357422 60.31982422 C-94.7815272 53.77326718 -91.12479977 47.95674436 -86.8125 42.25 C-86.11253906 41.31671875 -85.41257812 40.3834375 -84.69140625 39.421875 C-69.03004915 19.43340497 -45.36411764 4.40910909 -19.8125 1.25 C-19.10351562 1.14171875 -18.39453125 1.0334375 -17.6640625 0.921875 C-11.80519196 0.16202148 -5.90038676 0.08599031 0 0 Z " fill="#010101" transform="translate(105.8125,41.75)"/>
<path d="M0 0 C-0.58265625 0.25652344 -1.1653125 0.51304688 -1.765625 0.77734375 C-24.2010323 11.25425565 -39.97882386 30.14269668 -48.59765625 52.9765625 C-52.75058868 64.57622705 -54.15096799 75.77820238 -54.14044189 88.0219574 C-54.14341302 89.11119021 -54.14638414 90.20042302 -54.1494453 91.32266289 C-54.15809632 94.96177987 -54.15963751 98.6008638 -54.16113281 102.23999023 C-54.1657636 104.85394867 -54.17078862 107.46790643 -54.17617798 110.0818634 C-54.18972271 117.17734445 -54.19578029 124.27281982 -54.20018864 131.36831164 C-54.20295822 135.80615593 -54.20719692 140.24399807 -54.21169281 144.6818409 C-54.2238816 156.98950151 -54.23418093 169.29716041 -54.2375679 181.60482693 C-54.23778747 182.39158922 -54.23800703 183.17835151 -54.23823325 183.98895508 C-54.23845153 184.77751354 -54.23866981 185.56607199 -54.2388947 186.37852615 C-54.23933815 187.97622772 -54.23978472 189.57392929 -54.24023438 191.17163086 C-54.2404558 191.96413233 -54.24067723 192.7566338 -54.24090537 193.57315046 C-54.24484834 206.3972386 -54.26228876 219.22126974 -54.2855939 232.04533588 C-54.30937461 245.23856827 -54.32177284 258.43177214 -54.32293582 271.62502629 C-54.32384894 279.02158374 -54.32950886 286.41806695 -54.34775543 293.81460381 C-54.3632476 300.11645852 -54.36822376 306.41821605 -54.36001733 312.72008621 C-54.35614243 315.92832836 -54.35855587 319.13633694 -54.37107468 322.34456253 C-54.48246458 352.68873938 -49.63364082 379.98512759 -27.6796875 402.35546875 C-26.79539063 403.22816406 -25.91109375 404.10085938 -25 405 C-24.26007812 405.73863281 -23.52015625 406.47726562 -22.7578125 407.23828125 C-16.78383867 412.87307341 -10.03921419 416.84666864 -3 421 C-2.01 421.66 -1.02 422.32 0 423 C-15.71624793 422.05702512 -30.16764669 413.92048294 -42 404 C-43.09248047 403.14341797 -43.09248047 403.14341797 -44.20703125 402.26953125 C-60.46781242 388.91347807 -69.45090846 368.36842055 -73 348 C-73.08895707 346.38281969 -73.13242885 344.76267549 -73.13701439 343.14305687 C-73.14208893 342.18688512 -73.14716347 341.23071337 -73.15239179 340.24556673 C-73.15288955 339.20308043 -73.15338731 338.16059413 -73.15390015 337.08651733 C-73.1582824 335.97267406 -73.16266465 334.85883079 -73.1671797 333.71123469 C-73.18055714 329.97073677 -73.18674436 326.23026242 -73.19287109 322.48974609 C-73.2007732 319.81050948 -73.2090376 317.13127585 -73.21765137 314.45204163 C-73.24214918 306.40354249 -73.25680234 298.35503723 -73.26971143 290.3065123 C-73.27342645 288.03020672 -73.27739947 285.75390174 -73.2814641 283.47759676 C-73.30671291 269.32078123 -73.32875092 255.16396465 -73.34119225 241.00713158 C-73.34412163 237.72936372 -73.34708333 234.4515959 -73.35009766 231.17382812 C-73.35084371 230.35922047 -73.35158976 229.54461281 -73.35235842 228.70532008 C-73.36498697 215.53639314 -73.39817701 202.36760198 -73.43989949 189.19873838 C-73.48245398 175.65528886 -73.50590314 162.11190855 -73.51111281 148.5683924 C-73.51451257 140.97381011 -73.52609615 133.37943965 -73.55921555 125.78492355 C-73.5874042 119.31063867 -73.59813411 112.83660905 -73.58702008 106.3622676 C-73.58188007 103.06656413 -73.5872147 99.77149817 -73.60948563 96.47585106 C-73.79764666 67.00638025 -67.35674859 43.36215355 -46.7890625 21.66796875 C-36.77071502 12.22688664 -14.41250924 -4.31116543 0 0 Z " fill="#A6D1A2" transform="translate(88,60)"/>
<path d="M0 0 C6.95079961 7.14387737 10.52087294 14.59756377 10.625 24.625 C10.46530271 34.22562529 7.8123435 40.49045012 1.31640625 47.51953125 C-5.48065515 53.41717054 -13.28357761 55.63500571 -22.08984375 55.53125 C-30.76864271 54.8175749 -37.5872556 50.82656911 -43.4375 44.5 C-48.89321566 38.02058494 -51.13279351 31.04737685 -50.95703125 22.546875 C-50.17093439 14.06296169 -46.84865865 7.2524575 -40.75 1.3125 C-27.95778835 -8.05533499 -13.54144339 -8.30952208 0 0 Z " fill="#000000" transform="translate(389.75,61.6875)"/>
<path d="M0 0 C-0.81082031 0.40089844 -1.62164062 0.80179688 -2.45703125 1.21484375 C-10.47347204 5.33038553 -17.27502092 9.92744426 -24 16 C-24.84304687 16.74894531 -25.68609375 17.49789062 -26.5546875 18.26953125 C-43.03505887 33.74875856 -54.03476369 56.2721566 -55.14257812 78.9140625 C-55.71097629 97.98440097 -54.31158678 113.59685349 -46 131 C-45.57074219 131.89976562 -45.14148438 132.79953125 -44.69921875 133.7265625 C-36.24757932 150.2489224 -23.79047974 163.10158525 -7.8125 172.34375 C-5.39496004 173.76741242 -3.19984255 175.26550876 -1 177 C-19.369149 176.35546846 -36.4170697 164.56156709 -49 152 C-50.15435547 150.86304688 -50.15435547 150.86304688 -51.33203125 149.703125 C-67.8121319 132.52114613 -75.71743303 108.6739606 -75.47021484 85.16796875 C-74.66981177 60.61656744 -63.60912256 38.0009582 -46 21 C-36.31984821 12.44332062 -13.69303971 -4.9229738 0 0 Z " fill="#A4D0A0" transform="translate(198,188)"/>
<path d="M0 0 C-0.598125 0.2578125 -1.19625 0.515625 -1.8125 0.78125 C-9.57603555 5.10664838 -12.36486074 15.09458221 -15 23 C-15.0881597 24.50041282 -15.12035305 26.00446306 -15.11784363 27.50746155 C-15.11952042 28.89292679 -15.11952042 28.89292679 -15.12123108 30.30638123 C-15.11756027 31.31781693 -15.11388947 32.32925262 -15.11010742 33.37133789 C-15.11065021 35.58325705 -15.11123723 37.7951762 -15.11186218 40.00709534 C-15.10971993 41.76988421 -15.10971993 41.76988421 -15.10753441 43.56828499 C-15.10401771 49.78970803 -15.12981843 56.01104032 -15.15039062 62.23242188 C-15.17470732 70.15038589 -15.19045206 78.0680879 -15.17504883 85.98608398 C-15.16336853 92.38292038 -15.18083852 98.77910558 -15.21749306 105.17584038 C-15.2260942 107.60976195 -15.22405013 110.04374606 -15.210989 112.47764778 C-15.19403466 115.89345102 -15.21436292 119.30721539 -15.24291992 122.72290039 C-15.22912796 123.72016647 -15.215336 124.71743256 -15.2011261 125.74491882 C-15.31889893 133.04628894 -17.37983271 138.30224508 -22 144 C-27.27556457 148.23591132 -31.88044709 150.14258298 -38.6875 150.0625 C-39.68136719 150.05347656 -40.67523438 150.04445312 -41.69921875 150.03515625 C-42.83810547 150.01775391 -42.83810547 150.01775391 -44 150 C-43.60167969 149.443125 -43.20335937 148.88625 -42.79296875 148.3125 C-42.26316406 147.549375 -41.73335938 146.78625 -41.1875 146 C-40.66542969 145.2575 -40.14335937 144.515 -39.60546875 143.75 C-35.33780096 136.43993157 -34.56663325 130.35552254 -34.63110352 122.04516602 C-34.62733704 120.97580811 -34.62357056 119.9064502 -34.61968994 118.8046875 C-34.61327815 116.49396705 -34.61356798 114.1832202 -34.61987495 111.87249947 C-34.62901466 108.21047051 -34.61872794 104.54895033 -34.60325623 100.88694763 C-34.56323555 90.47924553 -34.56195364 80.07158464 -34.56420898 69.66381836 C-34.56426016 63.28729193 -34.54505661 56.91104073 -34.51487541 50.53458977 C-34.50407637 46.93560193 -34.51616485 43.33714503 -34.52870178 39.73817444 C-34.51979436 37.52018719 -34.50971894 35.30220421 -34.49829102 33.08422852 C-34.50803452 32.09122238 -34.51777802 31.09821625 -34.52781677 30.07511902 C-34.43271517 20.79286221 -31.41169787 13.55582401 -25.03125 6.796875 C-17.37173082 0.0211465 -9.94782307 -0.70164896 0 0 Z " fill="#A6D2A2" transform="translate(474,28)"/>
<path d="M0 0 C9.47142229 0.15881958 15.87941518 0.9825142 22.74609375 7.7109375 C27.29185734 12.70364667 29.45968248 16.8745802 29.25 23.8203125 C28.49728192 30.38307324 26.19147959 36.69244139 21 41 C14.13366744 45.69344251 8.20601135 46.70203519 0 46 C0.39832031 45.50371094 0.79664063 45.00742187 1.20703125 44.49609375 C2.00173828 43.47708984 2.00173828 43.47708984 2.8125 42.4375 C3.33457031 41.77621094 3.85664063 41.11492187 4.39453125 40.43359375 C9.72317253 32.35635891 9.99349224 24.32778822 9 15 C7.12036456 9.10749208 3.88877245 4.74463476 0 0 Z " fill="#A5D1A1" transform="translate(377,374)"/>
<path d="M0 0 C3.93792318 2.56821077 6.74612583 5.61725165 8.875 9.875 C9.54212053 13.94527966 9.6099409 17.46496681 7.67578125 21.17578125 C4.46436596 25.60057763 1.88889998 28.39499143 -3.67578125 29.28125 C-8.67623016 29.4509965 -12.2044266 29.44257469 -16.1875 26.1875 C-20.03329343 22.23130102 -21.19859301 18.89936 -21.5 13.4375 C-21.37097457 8.86848167 -20.25223471 6.32297673 -17.125 2.875 C-11.69939856 -1.4359358 -6.66640446 -2.39990561 0 0 Z " fill="#DE7C80" transform="translate(376.125,72.125)"/>
<path d="M0 0 C2.1875 1.4375 2.1875 1.4375 4 4 C4.59172757 7.17712187 4.55833755 10.27685041 4.5 13.5 C4.51546875 14.35464844 4.5309375 15.20929688 4.546875 16.08984375 C4.52228898 20.02975422 4.50597409 22.28574778 2.1875 25.55859375 C-1.06362182 27.70085081 -3.20154321 27.61046627 -7 27 C-10.16868455 24.14818391 -11.25373307 21.86993893 -11.53125 17.71484375 C-11.54180474 16.12239674 -11.53084132 14.52968331 -11.5 12.9375 C-11.51546875 12.13505859 -11.5309375 11.33261719 -11.546875 10.50585938 C-11.52153819 6.68950183 -11.45470679 4.63404157 -9.1875 1.47265625 C-5.97042119 -0.69312716 -3.78562459 -0.54080351 0 0 Z " fill="#030302" transform="translate(239,63)"/>
<path d="M0 0 C2.15625 0.90234375 2.15625 0.90234375 4 3 C4.61724804 6.31613359 4.55713219 9.57384238 4.5 12.9375 C4.51546875 13.84435547 4.5309375 14.75121094 4.546875 15.68554688 C4.50803062 22.28423653 4.50803062 22.28423653 2.15625 25.59765625 C-0.8061952 27.52431898 -2.53358643 27.57773559 -6 27 C-8.15625 25.59765625 -8.15625 25.59765625 -10 23 C-10.59742039 19.63722425 -10.55811568 16.34453182 -10.5 12.9375 C-10.51546875 12.02677734 -10.5309375 11.11605469 -10.546875 10.17773438 C-10.50796673 3.57791978 -10.50796673 3.57791978 -8.15625 0.90234375 C-5.22114898 -0.32593222 -3.15281979 -0.39410247 0 0 Z " fill="#010201" transform="translate(216,63)"/>
<path d="M0 0 C0 0.33 0 0.66 0 1 C-1.1446875 1.0928125 -1.1446875 1.0928125 -2.3125 1.1875 C-5.18028206 1.76673525 -5.18028206 1.76673525 -6.75 4.3125 C-9.52495695 10.27865745 -10.11520636 16.49854423 -8.10546875 22.80859375 C-7.12999595 25.23865851 -6.10912219 27.62826104 -5 30 C-9.94292719 29.22792988 -12.39155839 27.52825402 -16 24 C-18.6036 19.73956363 -18.67785126 14.85650399 -18 10 C-14.31670051 2.19140507 -8.42752997 -0.68796163 0 0 Z " fill="#C26169" transform="translate(373,71)"/>
</svg>
